<svg viewBox="0 0 1024 1024" xmlns="http://www.w3.org/2000/svg" fill="currentColor">
<rect x="301" y="183" width="121" height="644" rx="28"/>
<rect x="601" y="183" width="122" height="644" rx="28"/>
<g transform="translate(0 1024) scale(.1 -.1)">
<path d="m8485 5778c-183-115-410-175-702-185l-173-6v44c0 95-45 139-143 139-71 0-110-20-133-68-16-34-17-34-65-29l-49 6v-500-500l51 2c49 3 52 1 64-27 23-54 59-74 136-74 94 0 127 28 136 112 7 73 10 73 233 59 277-17 462-68 639-176 32-19 65-35 72-35 8 0 48 32 89 71 237 224 513 397 769 484 129 43 107 45-411 43-424-3-482-5-478-18 21-70-18-130-85-130-47 0-66 12-151 90-55 51-75 63-139 85-16 5-10 10 31 26 31 12 77 43 115 78 35 32 79 66 97 75 82 42 173-37 132-115-11-19-2-19 477-19 293 0 483 4 478 9-6 5-52 25-103 45-262 101-513 263-725 470-88 86-93 87-162 44z"/>
<path d="m4210 5175v-575h813c448 0 855 3 905 6l92 7v562 562l-46 7c-26 3-433 6-905 6h-859v-575z"/>
</g>
</svg>
